<svg width="757" height="791" viewBox="0 0 757 791" fill="none" xmlns="http://www.w3.org/2000/svg">
<path d="M360.902 133.504C366.673 124.934 380.447 128.14 389.238 120.465C390.557 119.332 391.617 117.926 392.345 116.345C392.652 115.213 392.009 113.419 390.807 113.778C388.411 114.494 389.066 116.576 384.88 119.134C377.017 123.899 366.709 122.284 359.883 129.055C354.176 134.723 354.392 143.344 350.171 149.484C349.89 149.936 349.634 150.403 349.404 150.883C348.825 151.958 350.023 153.333 351.145 152.625C356.537 149.236 356.848 139.527 360.902 133.504ZM421.236 104.445C418.72 108.023 414.806 116.584 405.979 121.253C404.134 122.203 402.18 122.925 400.16 123.403C399.744 123.524 399.385 123.791 399.149 124.154C398.912 124.518 398.814 124.955 398.872 125.385C398.93 125.815 399.14 126.209 399.465 126.497C399.789 126.785 400.206 126.947 400.64 126.953C410.105 126.101 421.228 114.458 423.648 105.457C423.719 105.151 423.681 104.83 423.538 104.55C423.395 104.271 423.158 104.051 422.869 103.93C422.58 103.808 422.257 103.794 421.958 103.888C421.659 103.983 421.403 104.18 421.236 104.445ZM411.818 142.573C412.113 142.735 412.449 142.808 412.784 142.783C413.12 142.757 413.44 142.634 413.707 142.429C413.974 142.223 414.175 141.944 414.285 141.626C414.396 141.309 414.412 140.965 414.33 140.638C413.308 137.225 407.369 134.527 403.815 133.684C396.297 132.335 388.546 133.341 381.621 136.565C381.467 136.608 381.323 136.68 381.197 136.779C381.072 136.877 380.966 136.999 380.887 137.138C380.809 137.277 380.758 137.43 380.738 137.589C380.719 137.747 380.73 137.908 380.773 138.062C380.815 138.216 380.888 138.361 380.986 138.487C381.084 138.613 381.206 138.718 381.345 138.797C381.484 138.876 381.637 138.927 381.795 138.946C381.954 138.966 382.114 138.954 382.268 138.912C383.467 138.732 384.665 138.608 385.819 138.404C386.973 138.2 388.143 137.88 389.305 137.657C405.876 134.447 409.43 141.358 411.818 142.573ZM413.767 148.345C406.978 142.413 398.699 143.316 388.547 144.599C388.355 144.589 388.163 144.618 387.983 144.685C387.803 144.751 387.638 144.853 387.499 144.986C387.359 145.118 387.248 145.277 387.173 145.454C387.097 145.63 387.058 145.82 387.058 146.012C387.058 146.205 387.097 146.395 387.173 146.571C387.248 146.748 387.359 146.907 387.499 147.039C387.638 147.171 387.803 147.274 387.983 147.34C388.163 147.407 388.355 147.436 388.547 147.425C401.267 147.969 405.967 145.219 412.849 153.869C415.341 156.998 419.942 153.749 413.767 148.345ZM473.318 109.741C472.936 107.602 472.119 105.563 470.916 103.753C469.714 101.942 468.153 100.399 466.329 99.2173C464.963 98.358 463.649 100.249 464.664 101.376C469.336 106.572 470.255 115.933 469.983 122.736C469.884 125.178 469.185 128.679 471.437 128.731C476.114 128.811 474.401 113.99 473.318 109.741ZM484.03 113.591C483.878 113.352 483.654 113.167 483.39 113.065C483.126 112.963 482.836 112.947 482.563 113.022C482.29 113.096 482.048 113.255 481.872 113.477C481.696 113.699 481.596 113.971 481.585 114.254C481.54 116.04 481.683 117.826 482.013 119.582C482.811 129.575 480.2 133.48 481.214 135.754C481.417 136.098 481.748 136.347 482.133 136.448C482.519 136.549 482.929 136.494 483.275 136.294C486.598 134.175 486.961 117.544 484.03 113.591ZM205.572 327.835C206.191 331.664 205.84 332.631 206.407 333.53C207.465 335.217 209.055 335.129 209.782 333.974C211.619 331.072 207.577 311.611 198.224 301.914C197.185 300.92 196.072 300.004 194.897 299.176C193.894 298.413 192.501 299.895 193.18 300.895C199.733 310.619 203.679 316.167 205.572 327.835ZM218.748 319.589C220.633 327.522 221.582 335.648 221.575 343.803C221.627 346.117 221.463 346.237 222.733 347.768C222.939 347.972 223.217 348.087 223.506 348.087C223.796 348.087 224.074 347.972 224.279 347.768C225.621 346.349 225.641 346.057 225.521 340.833C224.93 315.756 215.137 292.249 205.153 281.213C204.206 280.166 202.681 281.497 203.28 282.66C209.031 293.848 214.622 302.206 218.748 319.589ZM458.114 406.808C462.168 407.683 747.89 458.269 752.219 458.405C754.14 458.465 751.608 458.221 752.383 458.405C753.031 458.492 753.686 458.526 754.34 458.505C754.957 458.617 755.594 458.557 756.181 458.333L755.27 458.453C757.219 458.817 757.535 456.514 756.149 456.239C755.945 456.199 755.602 455.967 756.6 456.73C753.182 455.106 749.552 453.975 745.817 453.369C739.028 451.77 462.204 404.945 458.821 404.245C457.151 403.89 456.433 406.448 458.114 406.808ZM511.85 533.969C513.967 534.164 728.464 577.908 730.421 576.797L729.486 576.925C729.786 577.036 730.117 577.024 730.407 576.891C730.697 576.758 730.923 576.514 731.034 576.215C731.145 575.916 731.133 575.584 731 575.294C730.867 575.003 730.624 574.777 730.325 574.666C720.117 571.317 513.695 532.23 511.866 532.134C510.648 532.074 510.7 533.865 511.85 533.969ZM463.785 490.721C465.702 483.039 465.686 475.828 468.709 457.718C468.971 456.859 468.994 455.946 468.777 455.076C467.907 452.849 464.927 452.897 464.444 456.147C462.675 467.998 461.848 476.016 461.373 482.483C460.984 485.106 460.995 487.773 461.405 490.393C461.517 491.692 463.434 492.132 463.785 490.721ZM485.863 495.661C487.344 494.138 488.91 492.691 490.356 491.141C507.852 472.403 507.756 473.274 508.775 471.795C508.998 471.391 509.084 470.926 509.019 470.469C508.955 470.012 508.744 469.589 508.418 469.262C508.092 468.936 507.669 468.725 507.212 468.661C506.756 468.596 506.291 468.682 505.887 468.905C497.804 476.631 490.479 485.114 484.014 494.238C483.251 495.321 484.944 496.581 485.863 495.661ZM498.299 515.506C499.369 515.539 500.438 515.39 501.458 515.067C504.445 514.172 507.492 513.495 510.576 513.04C529.519 509.483 530.03 509.911 530.489 508.076C530.595 507.643 530.559 507.187 530.386 506.776C530.214 506.365 529.914 506.021 529.53 505.794C528.703 505.443 527.774 505.416 526.927 505.718C513.184 508.356 508.691 509.075 503.763 510.554C498.044 512.277 498.471 512.892 497.313 513.808C497.153 513.966 497.051 514.173 497.022 514.395C496.992 514.618 497.037 514.844 497.15 515.038C497.263 515.233 497.437 515.384 497.645 515.469C497.853 515.553 498.083 515.567 498.299 515.506ZM679.812 349.442C678.406 339.822 666.365 332.979 661.389 322.575C654.999 309.204 661.844 300.191 658.473 289.239C657.79 287.017 654.288 287.964 654.979 290.203C658.405 301.334 647.77 314.373 664.072 333.37C669.081 339.206 675.798 344.834 676.122 351.013C676.082 353.79 675.408 356.521 674.151 358.996C672.894 361.471 671.087 363.626 668.869 365.295C661.508 371.538 650.382 372.681 639.275 377.925C629.291 382.634 620.365 389.744 610.676 395.34C593.602 405.205 563.769 413.854 546.648 407.971C531.228 402.671 527.414 386.787 539.307 376.394C540.334 376.858 554.188 381.031 568.793 386.89C569.152 386.984 569.532 386.97 569.883 386.85C570.234 386.729 570.542 386.508 570.769 386.213C570.995 385.919 571.129 385.564 571.155 385.193C571.181 384.822 571.097 384.452 570.914 384.129C567.555 377.262 563.283 370.882 558.214 365.163L559.256 364.599C568.497 366.323 577.546 368.956 586.27 372.461C586.602 372.551 586.952 372.552 587.284 372.464C587.616 372.375 587.919 372.2 588.162 371.957C588.406 371.714 588.58 371.41 588.669 371.078C588.757 370.745 588.756 370.395 588.666 370.063C586.121 363.503 582.27 357.529 577.348 352.504C581.15 349.307 575.087 352.104 603.124 355.758C603.473 355.756 603.816 355.662 604.118 355.485C604.42 355.309 604.67 355.057 604.844 354.753C605.018 354.45 605.109 354.106 605.108 353.756C605.108 353.406 605.016 353.063 604.841 352.76C601.713 346.449 597.042 341.032 591.262 337.012C600.356 322.994 598.223 313.545 602.664 307.834C611.594 296.318 633.756 324.453 648.193 308.089C650.362 305.699 651.773 302.719 652.248 299.525C652.723 296.332 652.24 293.069 650.861 290.151C650.062 288.62 647.339 289.707 648.022 291.35C649.214 294.432 649.234 297.845 648.076 300.94C646.919 304.035 644.665 306.597 641.743 308.137C628.652 314.792 609.917 291.082 599.134 305.883C594.106 312.782 596.738 321.072 587.895 334.913C586.473 334.106 584.969 333.449 583.41 332.955C582.986 332.853 582.539 332.904 582.15 333.101C581.76 333.298 581.453 333.627 581.284 334.029C581.114 334.431 581.092 334.881 581.223 335.298C581.353 335.714 581.628 336.071 581.997 336.304C583.195 336.948 584.393 337.563 585.591 338.223C583.261 341.333 580.659 344.229 577.815 346.876C575.095 346.405 572.313 346.425 569.6 346.936C569.236 347.05 568.912 347.266 568.667 347.558C568.421 347.85 568.265 348.206 568.215 348.584C568.166 348.963 568.225 349.347 568.387 349.693C568.549 350.038 568.806 350.33 569.129 350.534C570.726 351.733 570.95 351.965 571.357 352.304C567.18 355.416 562.791 358.232 558.222 360.73C556.297 360.458 554.368 360.218 552.447 359.963C552.092 359.969 551.746 360.078 551.453 360.278C551.159 360.478 550.931 360.76 550.795 361.088C550.659 361.416 550.622 361.777 550.689 362.126C550.755 362.475 550.922 362.797 551.169 363.052C551.476 363.368 551.776 363.688 552.075 364.004C547.084 366.38 542.421 369.392 538.201 372.965C525.421 384.628 526.256 398.973 537.869 407.739C549.232 416.332 567.747 414.226 581.725 410.972C596.652 407.407 610.747 400.982 623.232 392.051C648.433 375.387 649.192 379.416 663.433 373.037C676.301 367.273 680.946 357.209 679.812 349.442ZM583.095 367.077C576.955 364.813 570.648 363.029 564.232 361.741C567.707 359.684 571.059 357.425 574.269 354.974C577.846 358.503 580.827 362.591 583.095 367.077ZM588.958 340.297C593.17 343.203 596.743 346.941 599.457 351.281C593.706 350.563 588.019 349.399 582.448 347.8C584.795 345.456 586.971 342.946 588.958 340.289V340.297ZM554.787 366.957C558.468 371.149 561.763 375.665 564.632 380.451C565.77 382.35 566.405 381.55 555.123 378.053C550.658 376.673 546.126 375.523 541.544 374.608C545.754 371.719 550.182 369.161 554.787 366.957Z" fill="#191919"/>
<path d="M661.284 354.342C651.625 366.244 641.552 362.684 630.038 366.787C605.887 375.401 590.916 401.429 563.898 399.385C554.382 398.663 542.079 396.28 535.3 389.514C534.546 388.764 533.198 389.742 533.804 390.672C534.43 391.636 535.122 392.556 535.874 393.426C542.821 401.437 565.034 404.51 575.574 402.307C597.337 397.753 611.797 377.025 631.59 370.332C641.615 366.943 648.12 369.198 657.244 363.219C661.756 360.306 665.38 356.208 667.721 351.372C667.854 350.759 667.947 350.138 668 349.512C667.994 349.212 667.9 348.921 667.731 348.673C667.562 348.425 667.324 348.232 667.047 348.117C666.77 348.003 666.465 347.971 666.171 348.027C665.876 348.082 665.604 348.223 665.388 348.431C663.091 351.129 663.506 351.604 661.284 354.342ZM510.662 390.181C509.73 389.661 508.657 389.454 507.599 389.59C501.345 389.446 495.22 387.78 489.753 384.737C489.574 384.565 489.339 384.464 489.091 384.451C488.844 384.438 488.6 384.514 488.404 384.666C488.207 384.817 488.072 385.034 488.022 385.277C487.971 385.52 488.01 385.773 488.13 385.99C488.663 386.74 489.267 387.438 489.932 388.073C493.522 391.598 507.172 394.556 510.67 392.376C510.858 392.261 511.013 392.099 511.12 391.906C511.227 391.714 511.283 391.497 511.282 391.276C511.281 391.056 511.224 390.839 511.115 390.647C511.007 390.456 510.85 390.295 510.662 390.181Z" fill="#191919"/>
<path d="M519.797 375.312C512.075 369.282 517.489 373.36 506.244 365.311C508.428 363.605 510.542 361.815 512.586 359.939C519.324 360.132 526.048 360.685 532.728 361.595C534.294 361.775 535.024 359.831 534.414 358.662C531.798 354.286 528.114 350.647 523.707 348.09C525.222 346.227 526.675 344.306 528.068 342.327C535.762 342.075 543.465 342.357 551.12 343.173C551.461 343.169 551.795 343.076 552.089 342.903C552.384 342.73 552.628 342.483 552.798 342.187C552.967 341.891 553.057 341.555 553.058 341.214C553.059 340.872 552.97 340.536 552.802 340.239C549.34 333.816 544.409 328.305 538.412 324.156C542.119 315.775 542.657 311.704 544.706 308.064C545.936 305.842 547.892 304.11 550.245 303.159C552.599 302.208 555.207 302.095 557.633 302.84C566.845 304.879 573.275 314.114 582.048 311.584C583.369 311.199 584.592 310.536 585.636 309.64C586.652 308.774 585.333 307.09 584.217 307.797C583.108 308.405 581.888 308.782 580.629 308.906C579.371 309.031 578.101 308.899 576.894 308.519C569.895 306.679 562.759 297.428 551.451 299.232C540.565 300.968 539.991 311.464 535.084 322.527C532.899 321.669 530.57 321.238 528.223 321.258C527.96 321.246 527.697 321.288 527.451 321.38C527.204 321.473 526.979 321.615 526.788 321.797C526.598 321.979 526.446 322.198 526.343 322.441C526.239 322.683 526.186 322.944 526.186 323.208C526.186 323.472 526.239 323.732 526.343 323.975C526.446 324.217 526.598 324.436 526.788 324.619C526.979 324.801 527.204 324.943 527.451 325.035C527.697 325.128 527.96 325.169 528.223 325.157C530.002 325.117 531.771 325.422 533.433 326.055C531.343 330.353 528.963 334.504 526.31 338.479C523.006 338.362 519.707 338.841 516.572 339.892C514.507 340.846 512.243 343.256 513.666 345.647C514.232 346.597 515.125 347.108 518.146 349.083C515.95 351.585 513.63 353.975 511.194 356.243C508.75 356.393 506.336 356.872 504.019 357.668C502.209 358.255 500.522 359.17 499.041 360.366C498.624 360.809 498.364 361.377 498.299 361.982C498.234 362.587 498.369 363.197 498.682 363.718C499.086 364.299 499.604 364.792 500.205 365.167C495.667 367.979 491.425 371.241 487.541 374.905C476.87 386.12 480.653 399.98 491.702 402.646C497.921 404.151 498.12 399.853 495.485 399.533C495.644 399.533 493.962 399.242 493.616 399.19C492.265 399.015 490.965 398.564 489.796 397.866C488.626 397.167 487.612 396.237 486.815 395.131C486.019 394.025 485.457 392.767 485.165 391.436C484.873 390.104 484.857 388.727 485.117 387.389C487.01 377.611 494.911 373.688 502.987 367.761C504.127 366.923 503.33 368.16 518.449 377.032C519.51 377.631 520.801 376.094 519.797 375.312ZM485.759 393.232C485.791 393.307 485.827 393.419 485.759 393.232V393.232ZM528.754 357.253C524.6 356.79 519.749 356.275 516.508 356.155C518.118 354.522 519.681 352.835 521.196 351.095C523.989 352.785 526.533 354.858 528.754 357.253ZM536.79 327.684C541.098 330.6 544.701 334.442 547.337 338.93C541.823 338.472 536.29 338.287 530.759 338.376C532.972 334.936 534.986 331.371 536.79 327.7V327.684ZM518.055 343.54C519.78 342.849 521.626 342.509 523.484 342.542C522.591 343.75 521.661 344.939 520.694 346.11C517.078 343.727 517.122 344.031 518.039 343.54H518.055ZM505.957 360.861C505.032 361.619 504.094 362.352 503.142 363.06L502.218 362.397C503.385 361.721 504.637 361.204 505.941 360.861H505.957ZM444.857 745.647C444.857 746.006 444.999 746.35 445.253 746.604C445.506 746.857 445.85 747 446.208 747C446.567 747 446.91 746.857 447.164 746.604C447.417 746.35 447.56 746.006 447.56 745.647C448.708 736.188 447.085 684.896 446.567 681.308C446.48 681.01 446.289 680.753 446.029 680.584C445.769 680.414 445.457 680.344 445.15 680.386C444.842 680.427 444.56 680.578 444.354 680.81C444.148 681.043 444.032 681.341 444.028 681.652C443.848 684.186 444.586 743.037 444.857 745.647Z" fill="#191919"/>
<path d="M560.794 606.817C547.26 604.229 535.259 602.527 527.846 601.157C526.784 600.962 525.36 600.778 524.853 601.728C524.195 602.97 525.332 603.989 526.748 604.253C527.662 604.424 550.26 608.011 557.869 608.738C557.98 612.198 558.369 615.644 559.034 619.042C556.927 619.744 567.688 614.608 446.521 673.585C443.593 672.299 293.675 645.069 293.273 644.997C293.227 641.51 292.944 638.03 292.427 634.581C297.011 633.483 330.809 617.74 336.315 612.616C336.528 612.389 336.663 612.099 336.698 611.789C336.734 611.479 336.668 611.167 336.512 610.897C336.355 610.628 336.116 610.416 335.829 610.294C335.543 610.172 335.225 610.146 334.922 610.219C332.309 611.018 327.605 613.838 317.144 619.077C291.034 632.149 290.583 630.308 289.49 635.548C289.046 638.678 288.904 641.844 289.063 645.001C289.065 645.301 289.131 645.597 289.256 645.87C289.381 646.143 289.564 646.385 289.79 646.581C290.017 646.778 290.283 646.923 290.57 647.008C290.858 647.093 291.16 647.116 291.457 647.074C292.654 647.318 296.221 648.024 296.823 648.14C296.025 656.344 295.994 702.708 296.137 704.644C296.09 705.527 296.269 706.407 296.656 707.201C297.218 708.798 298.814 708.55 299.169 707.6C299.813 706.399 300.084 705.034 299.947 703.678C300.155 699.888 299.365 649.043 299.329 648.644C299.728 648.723 441.506 675.801 445.787 675.981C448.045 676.073 552.918 625.136 553.329 624.932C552.874 632.668 554.33 692.499 554.402 693.11C555.2 700.068 557.123 695.994 542.576 706.114C438.514 778.494 448.017 773.781 444.666 772.89C444.267 772.787 323.424 746.104 323.025 746.056C320.819 745.695 318.594 745.469 316.362 745.381C315.113 745.273 314.901 747.218 316.07 747.534C319.182 748.365 321.257 749.183 321.927 749.351C322.326 749.455 441.801 776.736 446.31 777C446.928 777.032 554.653 702.064 556.668 700.175C557.725 699.465 556.668 700 557.155 693.07C557.342 690.423 556.568 636.255 556.513 633.994C556.514 630.578 556.203 627.169 555.583 623.81C557.412 623.049 559.136 622.057 560.714 620.859C562.876 619.273 561.895 607.028 560.794 606.817Z" fill="#191919"/>
<path d="M383.965 649.931C430.96 658.467 439.305 660.903 445.13 661C445.301 661 495.184 638.149 497.361 636.752C498.868 635.79 499.549 635.512 499.968 634.308C500.033 634.052 499.998 633.78 499.868 633.55C499.739 633.32 499.526 633.15 499.274 633.076C498.256 632.884 497.204 633.058 496.3 633.567C495.901 633.72 446.637 656.551 445.062 657.65C444.664 657.545 384.14 646.299 383.219 646.416C382.766 646.495 382.317 646.6 381.875 646.73C380.727 647.008 380.105 649.226 383.965 649.931Z" fill="#191919"/>
<path d="M195.431 739.497C190.061 733.597 184.22 728.143 177.963 723.188C174.918 720.741 173.009 723.496 170.176 726.574C168.181 729.098 166.359 731.753 164.722 734.522C163.787 735.815 162.928 737.16 162.149 738.55C162.02 738.755 161.973 739 162.015 739.238C162.057 739.476 162.186 739.69 162.377 739.839C162.568 739.988 162.807 740.061 163.049 740.044C163.29 740.027 163.517 739.922 163.685 739.748C165.704 737.536 167.922 735.514 170.312 733.708C172.113 732.487 173.834 731.154 175.466 729.716C178.144 732.406 189.636 743.022 192.174 743.744C192.886 743.84 194.222 744.479 195.327 743.281C195.723 742.88 195.977 742.36 196.049 741.801C196.121 741.243 196.008 740.676 195.727 740.187C195.803 740.547 195.859 740.515 195.431 739.497ZM248.934 737.552C253.668 739.089 258.858 740.555 264.252 741.828C265.225 740.878 266.185 739.904 267.221 739.034C287.854 721.599 287.438 723.6 286.169 722.625C282.866 720.138 279.517 717.71 276.125 715.344C273.636 717.308 251.203 735.8 248.934 737.552ZM400.766 561.459C395.397 555.559 389.555 550.105 383.299 545.151C380.253 542.703 378.345 545.454 375.515 548.536C373.518 551.058 371.694 553.712 370.057 556.481C369.122 557.777 368.263 559.126 367.484 560.521C367.365 560.726 367.324 560.967 367.369 561.2C367.415 561.432 367.543 561.641 367.73 561.787C367.917 561.933 368.151 562.006 368.388 561.994C368.625 561.981 368.85 561.883 369.021 561.718C371.039 559.506 373.257 557.484 375.647 555.678C377.449 554.458 379.17 553.125 380.802 551.686C383.479 554.377 394.972 564.992 397.509 565.711C398.221 565.81 399.558 566.449 400.662 565.248C401.058 564.846 401.311 564.326 401.383 563.768C401.455 563.209 401.343 562.642 401.062 562.154C401.138 562.493 401.194 562.493 400.766 561.459ZM438.146 553.486C442.414 555.296 446.734 556.952 451.103 558.453C456.962 552.325 471.688 540.376 478.315 535.094C474.767 532.611 471.138 530.245 467.434 528C461.356 533.35 443.94 548.596 438.146 553.486ZM454.265 559.511C458.999 561.052 464.189 562.517 469.583 563.79C470.556 562.836 471.516 561.866 472.552 560.996C493.185 543.562 492.769 545.566 491.501 544.592C488.197 542.104 484.849 539.676 481.456 537.31C478.955 539.278 456.594 557.702 454.265 559.511Z" fill="#EF233C"/>
<path d="M113.486 648.691C114.444 650.487 115.384 652.29 116.306 654.102C117.224 655.912 118.347 657.626 119.353 659.384C127.45 673.492 127.254 675.838 129.882 675.131C130.422 674.977 130.882 674.623 131.168 674.14C132.035 672.653 130.793 671.031 129.531 668.686C125.673 660.997 121.029 653.729 115.675 646.997C114.776 645.835 112.659 647.157 113.486 648.691ZM75.9644 675.518C77.7558 677.039 79.7214 678.341 81.8199 679.398C106.184 693.095 106.26 693.666 108.058 692.583C109.256 691.876 109.4 689.978 106.117 688.216C81.5922 675.031 78.9561 673.772 77.1507 673.488C76.8934 673.422 76.6216 673.442 76.3765 673.545C76.1314 673.647 75.9263 673.826 75.7923 674.056C75.6582 674.285 75.6025 674.552 75.6336 674.816C75.6646 675.08 75.7808 675.326 75.9644 675.518ZM66.9695 718.555C72.2788 719.119 77.6313 719.147 82.9463 718.639C85.85 718.419 105.569 716.505 107.371 714.468C107.662 714.171 107.861 713.796 107.944 713.388C108.027 712.981 107.99 712.558 107.838 712.171C107.686 711.784 107.425 711.449 107.087 711.208C106.749 710.966 106.348 710.827 105.933 710.808C105.062 710.692 98.5116 712.078 92.5443 712.953C86.4931 713.84 67.3809 715.778 66.9814 715.814C66.6181 715.812 66.269 715.955 66.011 716.211C65.7529 716.467 65.607 716.815 65.6054 717.179C65.6039 717.542 65.7467 717.891 66.0025 718.149C66.2583 718.408 66.6061 718.554 66.9695 718.555ZM430.921 384.061C425.125 315.42 417.856 304.652 378.709 293.1C365.076 289.081 351.22 285.836 337.265 283.151C306.427 277.452 275.292 273.498 244.008 271.308C244.008 269.506 244.008 267.712 244.044 265.902C252.895 269.342 262.893 265.279 271.464 262.598C280.51 259.791 289.169 255.866 297.243 250.914C319.451 237.241 352.782 203.622 364.681 189.354C365.608 188.191 365.396 187.607 364.282 186.021C365.831 184.855 367.596 184.005 369.474 183.52C374.666 182.034 390.791 179.784 396.171 179.125C401.823 178.413 407.982 177.479 411.952 172.939C418.639 165.304 413.474 156.082 404.12 153.9C400.761 153.211 397.304 153.16 393.926 153.748C393.604 153.748 393.295 153.877 393.066 154.105C392.838 154.333 392.71 154.642 392.71 154.965C392.71 155.288 392.838 155.597 393.066 155.825C393.295 156.054 393.604 156.182 393.926 156.182C400.066 156.789 405.705 157.025 409.316 161.34C409.956 162.208 410.393 163.21 410.592 164.27C410.792 165.331 410.749 166.422 410.468 167.464C410.187 168.506 409.675 169.471 408.969 170.286C408.263 171.102 407.382 171.748 406.392 172.176C401.655 175.053 396.698 174.402 376.979 177.77C371.65 178.176 366.491 179.833 361.921 182.605C357.772 175.844 354.413 168.629 351.911 161.1C348.357 151.295 348.457 150.132 347.051 148.203C344.203 144.299 338.735 147.036 335.04 148.091C304.721 156.786 275.344 168.482 247.343 183.004C243.638 172.431 239.363 162.066 234.538 151.954C225.144 132.316 214.351 113.548 193.31 107.451C177.002 102.72 159.874 106.548 144.888 114.687C142.891 115.766 140.942 116.913 138.965 118.028C138.354 114.671 138.589 115.722 138.414 114.623C162.159 111.786 160.23 86.3901 156.296 62.8878C160.142 61.1911 163.833 59.163 167.328 56.8264C174.829 51.3524 183.376 44.1043 177.085 37.0161C173.523 33.0204 167.775 33.3441 162.662 34.2191C153.823 3.57261 113.973 -11.7307 91.2262 10.6449C76.5236 25.129 75.4571 47.7323 84.508 65.3291C84.8844 66.184 85.3646 66.9892 85.9379 67.7265C85.9645 68.0305 86.0708 68.3221 86.2462 68.5719C86.4215 68.8217 86.6596 69.0207 86.9365 69.1489C78.2611 76.5009 81.8638 90.3258 91.7015 91.924C97.7487 92.9229 95.6558 90.0061 96.0113 94.1976C96.6645 101.888 96.2411 109.631 94.7531 117.204C90.9267 115.554 86.9644 113.872 83.0221 112.454C66.9175 106.684 49.8703 105.977 37.8158 118.047C24.9425 130.953 15.7399 161.528 11.1665 179.133C2.87059 211.042 -5.84075 247.734 5.21518 279.024C15.4683 308.032 41.0232 327.734 67.8881 342.554C82.043 350.545 97.1667 356.68 112.887 360.81C114.652 381.731 117.68 402.568 120.288 423.402C131.408 512.273 139.193 598.774 164.428 678.199C165.167 680.521 167.451 679.877 169.113 679.598C168.889 681.272 168.766 689.839 168.79 691.525C168.814 692.084 169.053 692.613 169.457 693.001C169.862 693.389 170.4 693.605 170.96 693.605C171.521 693.605 172.059 693.389 172.464 693.001C172.868 692.613 173.107 692.084 173.131 691.525C173.131 690.326 173.067 680.736 172.712 679.006C200.356 674.459 196.369 675.238 197.875 674.887C199.186 680.74 201.088 686.444 203.551 691.912C203.814 692.285 204.196 692.556 204.634 692.681C205.072 692.806 205.54 692.778 205.959 692.601C206.379 692.423 206.726 692.108 206.941 691.706C207.157 691.305 207.229 690.842 207.146 690.394C204.85 684.955 202.867 679.389 201.206 673.724C202.658 672.886 203.903 671.733 204.851 670.35C205.798 668.967 206.424 667.389 206.682 665.733C208.371 658.255 209.417 650.646 209.81 642.99C219.5 508.996 213.345 457.417 212.945 431.013C212.642 410.859 214.259 387.013 223.398 368.841C227.097 361.481 231.806 363.587 241.013 364.922L346.368 380.301C349.017 414.415 355.712 448.094 366.311 480.627C369.462 490.353 373.102 499.914 377.219 509.272C377.533 510.031 378.023 510.704 378.648 511.237C379.272 511.769 380.015 512.146 380.814 512.337C380.522 513.116 380.666 512.464 380.154 515.913C379.643 519.361 383.002 519.656 383.749 517.531C384.084 515.998 384.201 514.426 384.097 512.86C387.791 513.052 407.662 510.982 410.75 510.463C409.847 517.303 414.836 515.853 414.68 513.579C414.616 512.704 413.977 511.202 413.881 509.823C417.273 508.864 418.275 506.715 419.17 503.338C430.805 459.774 436.261 447.208 430.921 384.061ZM212.139 164.425C226.194 183.292 240.186 216.448 244.823 252.005C245.021 253.647 244.968 255.31 244.663 256.936C244.654 257.253 244.533 257.556 244.321 257.792C244.109 258.028 243.82 258.181 243.506 258.223C243.192 258.266 242.873 258.196 242.606 258.025C242.338 257.854 242.14 257.594 242.047 257.291C241.783 256.428 241.384 255.629 241.156 254.758C238.524 235.92 233.698 217.455 226.777 199.738C221.881 188.048 216.362 176.628 210.245 165.528C210.173 165.403 210.126 165.266 210.106 165.123C210.087 164.981 210.096 164.836 210.133 164.696C210.17 164.557 210.233 164.427 210.32 164.312C210.408 164.198 210.516 164.102 210.641 164.029C210.765 163.957 210.902 163.91 211.045 163.89C211.188 163.871 211.332 163.88 211.472 163.917C211.611 163.953 211.741 164.017 211.856 164.104C211.97 164.192 212.066 164.3 212.139 164.425ZM138.713 103.607C134.575 106.284 131.548 105.413 129.838 102.768C129.355 102.079 129.038 101.288 128.914 100.456C128.789 99.6235 128.859 98.7737 129.119 97.9734C129.157 97.8447 129.231 97.7297 129.333 97.6425C129.435 97.5553 129.56 97.4997 129.693 97.4823C129.826 97.4649 129.961 97.4866 130.082 97.5447C130.203 97.6029 130.304 97.6949 130.373 97.8096C130.641 98.4409 130.972 99.0323 131.236 99.6636C131.771 100.962 132.434 102.556 134.244 102.5C136.64 102.425 139.508 99.5078 140.063 99.0283C141.533 97.7337 143.778 100.363 138.713 103.607ZM135.885 119.67C122.205 126.774 113.062 124.381 98.4597 118.978C98.7664 117.873 98.9972 116.747 99.1507 115.61C99.7259 112.238 96.9499 117.496 135.438 114.899C135.538 116.729 135.686 118.099 135.885 119.67ZM89.8922 17.841C108.573 -7.37542 148.028 3.63255 158.704 35.0582C145.851 38.1228 92.9158 62.3364 91.6975 63.6949C90.2077 64.3981 89.6685 64.5939 88.0349 65.4889C80.7894 49.5104 79.4513 32.2133 89.8922 17.841ZM91.7015 88.1082C89.8764 87.5841 88.2975 86.4268 87.248 84.8438C86.4216 83.5357 85.9024 82.0572 85.7295 80.5195C85.5565 78.9818 85.7343 77.4248 86.2494 75.9657C86.7646 74.5066 87.6037 73.1834 88.7037 72.0954C89.8037 71.0074 91.1359 70.1831 92.6002 69.6843C96.2283 70.8261 99.2841 73.3099 101.144 76.6288C101.403 77.0506 101.805 77.3654 102.277 77.5161C102.748 77.6667 103.258 77.6432 103.714 77.4498C104.17 77.2564 104.541 76.906 104.761 76.4621C104.98 76.0182 105.033 75.5102 104.91 75.0305C103.654 71.2292 103.181 67.2126 103.52 63.2234C103.584 62.1885 99.9815 64.2423 136.988 47.4766C144.026 44.2801 164.148 34.9223 171.997 38.2187C175.368 39.6332 176.339 42.538 173.527 46.1581C168.167 51.4484 162.218 56.1059 155.796 60.0389C155.112 56.2846 154.306 52.5534 153.38 48.8511C153.241 47.758 152.839 46.7148 152.21 45.8104C152.086 45.6145 151.903 45.4634 151.687 45.3794C151.471 45.2954 151.234 45.2829 151.01 45.3437C150.787 45.4045 150.589 45.5355 150.445 45.7173C150.301 45.8991 150.22 46.1222 150.213 46.3539C150.684 50.9721 151.424 55.5589 152.429 60.0908C151.443 59.4414 150.316 59.0357 149.142 58.9074C147.968 58.7791 146.78 58.9318 145.676 59.3528C144.573 59.7739 143.585 60.4513 142.794 61.3292C142.004 62.2071 141.433 63.2603 141.13 64.4021C139.795 64.3016 138.454 64.366 137.136 64.5939C135.827 62.0746 134.206 59.7306 132.311 57.6175C131.659 56.9503 130.266 57.6175 130.649 58.5885C131.629 60.9241 132.801 63.1747 134.152 65.3171C132.027 66.0363 130.069 67.178 128.396 68.6735C127.776 67.6368 126.894 66.7811 125.84 66.1922C119.293 62.5641 112.447 70.4635 115.327 76.6128C117.776 81.8391 129.858 83.8569 129.515 72.4373C129.471 71.0708 129.227 71.6382 129.722 71.2147C131.458 69.789 133.51 68.7998 135.706 68.3298C138.341 73.1997 140.61 78.2588 142.496 83.4653C140.389 83.4865 138.29 83.1943 136.269 82.5982C135.845 82.4817 135.392 82.5383 135.01 82.7556C134.628 82.9729 134.348 83.3331 134.232 83.757C134.115 84.1809 134.172 84.6337 134.389 85.0158C134.606 85.398 134.966 85.6782 135.39 85.7947C138.115 86.5257 140.944 86.7958 143.758 86.5939C144.118 86.5266 144.461 86.3835 144.762 86.1741C145.063 85.9648 145.316 85.6938 145.505 85.3792C145.694 85.0647 145.814 84.7136 145.857 84.3492C145.9 83.9848 145.865 83.6155 145.755 83.2655C143.86 78.0321 141.59 72.9418 138.965 68.0341C139.429 68.0074 139.896 68.0316 140.355 68.1061C141.325 68.178 140.383 67.9622 141.377 70.0799C141.979 71.1441 142.814 72.0577 143.82 72.7519C144.826 73.4462 145.976 73.9028 147.185 74.0875C148.393 74.2722 149.627 74.1801 150.794 73.8181C151.961 73.4561 153.031 72.8337 153.923 71.9978C154.426 76.8885 154.902 82.7141 154.886 87.6287C152.25 86.7897 137.567 95.2204 104.183 87.5209C103.23 87.2087 102.223 87.0945 101.224 87.1852C99.9216 84.5881 96.898 89.4787 91.7015 88.1082ZM67.5846 270.509C68.1737 268.895 68.1008 267.113 67.3817 265.552C66.6627 263.991 65.3558 262.778 63.7461 262.178C63.2406 262.025 62.8133 261.683 62.5524 261.223C62.2916 260.764 62.217 260.222 62.3442 259.709C64.4891 245.28 70.3326 212.121 71.7306 208.676C72.4615 206.874 72.6332 205.364 74.0632 205.536C77.4383 205.935 73.4201 213.235 66.4742 258.985C68.4969 260.118 70.0995 261.873 71.0432 263.991C71.9869 266.109 72.221 268.475 71.7106 270.737C96.5345 274.425 118.483 287.518 138.338 302.849C140.834 304.775 138.01 307.684 136.281 306.354C81.9916 264.388 62.6318 280.19 67.5846 270.509ZM426.623 453.345C424.885 464.745 421.63 475.601 415.499 499.467C414.361 503.93 414.66 505.252 411.769 505.824C403.042 507.243 394.24 508.15 385.407 508.541C383.998 508.721 382.568 508.484 381.293 507.857C381.181 507.774 381.157 507.758 381.145 507.626C364.468 466.323 354.267 422.692 350.901 378.275C350.895 377.761 350.723 377.262 350.412 376.852C350.1 376.443 349.665 376.145 349.171 376.002L240.985 360.259C233.863 359.224 226.406 357.022 221.489 363.164C219.567 365.875 218.048 368.85 216.98 371.998C202.397 407.959 210.525 448.898 210.701 504.217C210.801 533.757 207.505 636.872 203.136 660.003C203.013 663.185 201.956 666.261 200.096 668.845C198.498 670.288 198.578 669.968 168.422 674.871C156.633 635.997 147.842 596.276 142.128 556.057C138.969 535.531 116.43 363.255 116.166 361.621C124.965 363.809 134.009 364.848 143.075 364.714C140.228 369.466 136.806 373.849 132.886 377.764C131.184 379.442 130.134 380.065 130.277 381.32C130.292 381.749 130.44 382.163 130.701 382.503C130.963 382.844 131.325 383.093 131.735 383.218C133.273 383.553 134.072 382.606 135.546 381.16C141.08 375.738 145.55 369.328 148.727 362.261C155.665 354.949 159.016 329.572 143.798 311.836C149.857 300.624 161.688 292.657 172.912 287.378C202.616 273.43 240.413 276.259 243.094 274.297C259.614 277.493 311.794 280.166 363.559 293.476C402.498 303.465 415.635 308.216 422.03 348.484C426.523 376.765 430.597 427.254 426.623 453.333V453.345ZM745.907 481.826C744.953 481.866 745.172 482.437 745.699 480.851C746.582 478.19 746.267 475.996 745.943 463.458C745.929 463.054 745.808 462.661 745.592 462.319C741.346 461.796 740 461.484 709.76 456.218C709.492 456.969 709.014 457.627 708.383 458.114C707.752 458.602 706.995 458.898 706.201 458.967C703.201 459.366 700.209 456.757 698.16 454.923C696.503 453.449 699.259 454.548 679.316 450.928C663.427 458.18 652.519 494.936 635.535 513.659C628.997 520.875 622.674 526.517 624.827 537.925C626.708 547.886 634.609 552.912 644.482 554.61C665.324 558.206 684.221 547.582 700.637 534.468C709.424 527.436 733.841 506.251 737.052 503.091C742.448 497.78 747.597 491.563 748 483.912C747.996 483.358 747.774 482.829 747.382 482.439C746.99 482.048 746.46 481.828 745.907 481.826ZM672.414 469.04C674.197 468.675 676.032 468.644 677.826 468.948C681.451 469.505 684.892 470.914 687.867 473.059C690.831 475.205 691.271 475.9 691.71 477.343C692.029 478.382 690.875 479.021 690.024 478.637C689.162 478.3 688.4 477.75 687.807 477.039C683.586 473.339 678.256 471.144 672.654 470.798C671.715 470.722 671.355 469.172 672.422 469.02L672.414 469.04ZM662.48 486.301C670.6 483.46 684.017 490.444 682.052 493.03V492.982C680.714 495.455 678.333 491.136 671.515 489.202C669.124 488.578 666.668 488.24 664.198 488.195C663.499 488.155 662.348 488.291 661.849 487.699C661.41 487.16 661.757 486.157 662.488 486.273L662.48 486.301ZM653.585 502.164C656.331 501.106 659.298 500.752 662.215 501.136C665.132 501.52 667.906 502.629 670.285 504.361C671.928 505.296 673.453 506.423 674.83 507.718C675.057 507.958 675.19 508.272 675.206 508.603C675.222 508.933 675.12 509.258 674.918 509.52C674.716 509.782 674.427 509.963 674.104 510.031C673.78 510.099 673.443 510.049 673.153 509.891C667.022 506.531 664.677 503.027 653.981 503.666C653.795 503.678 653.61 503.624 653.46 503.515C653.309 503.405 653.201 503.246 653.155 503.066C653.109 502.885 653.128 502.694 653.208 502.526C653.288 502.357 653.424 502.222 653.593 502.144L653.585 502.164ZM629.8 528.435C630.055 524.839 634.501 520.651 638.339 516.392C641.451 515.339 644.752 514.96 648.021 515.28C651.291 515.601 654.455 516.613 657.304 518.25C661.217 519.776 664.501 522.579 666.624 526.205C668.747 529.831 669.583 534.067 668.999 538.228C657.731 543.866 628.821 542.336 629.808 528.415L629.8 528.435ZM666.826 539.287C666.782 539.299 666.739 539.315 666.698 539.335C666.435 539.439 666.694 539.331 666.834 539.267L666.826 539.287ZM743.742 484.871C743.742 484.962 743.742 485.078 743.742 484.871V484.871ZM743.742 484.755C742.732 492.834 733.805 500.629 727.57 506.011C701.42 528.595 685.631 543.97 665.52 549.392C650.981 553.3 631.485 551.789 628.649 536.69C635.16 545.368 650.873 545.956 661.857 544.338C666.766 543.614 667.481 543.814 677.179 538.156C688.274 531.764 698.895 524.583 708.961 516.668C709.392 516.308 729.679 499.223 737.395 491.391C744.577 484.111 743.826 483.664 743.742 484.755Z" fill="#191919"/>
<path d="M609.118 439.274C596.965 451.698 588.971 473.819 578.674 489.285C572.275 498.924 562.75 507.703 562.074 519.947C561.62 525.164 563.267 530.347 566.653 534.356C570.904 538.946 577.478 539.702 583.369 540.426C595.365 541.906 611.157 540.979 619.303 532.18C619.599 531.869 619.775 531.464 619.797 531.037C619.819 530.609 619.687 530.188 619.424 529.849C619.162 529.51 618.786 529.275 618.365 529.188C617.944 529.1 617.505 529.165 617.128 529.371C611.02 534.202 603.471 536.876 595.669 536.973C589.507 537.275 575.251 536.691 570.5 532.056C568.655 530.209 567.41 527.853 566.929 525.294C577.754 532.908 591.354 532.168 604.019 527.927C647.564 513.348 629.612 495.869 676 450.46C603.579 437.767 609.658 438.721 609.118 439.274ZM609.454 521.531C600.51 525.907 590.507 527.687 580.593 526.666C575.488 525.986 570.65 523.992 566.557 520.882C566.701 513.487 570.98 507.309 575.679 501.1C578.248 499.825 581.02 499.001 583.872 498.665C587.097 498.322 590.359 498.658 593.445 499.65C596.531 500.643 599.373 502.27 601.786 504.427C604.198 506.583 606.128 509.221 607.449 512.167C608.77 515.114 609.453 518.304 609.454 521.531ZM595.349 500.157C595.433 500.193 595.549 500.233 595.349 500.157V500.157ZM611.441 490.355C608.35 490.582 606.091 484.786 591.206 485.717C590.431 485.765 590.051 484.524 590.807 484.205C594.485 482.532 598.65 482.249 602.523 483.41C611.745 485.478 613.589 490.196 611.437 490.355H611.441ZM619.935 477.339C618.155 477.483 617.759 474.917 609.722 472.964C605.921 472.26 602.077 471.808 598.217 471.611C598.077 471.562 597.954 471.476 597.861 471.361C597.768 471.247 597.708 471.109 597.689 470.963C597.67 470.817 597.692 470.669 597.753 470.535C597.813 470.401 597.91 470.286 598.033 470.203C602.767 468.011 611.829 469.833 616.968 472.12C621.826 474.28 621.494 477.212 619.931 477.339H619.935ZM624.134 460.151C622.51 460.401 621.77 459.916 619.483 459.013C615.394 456.962 610.719 456.376 606.246 457.354C606.042 457.353 605.846 457.278 605.693 457.144C605.539 457.009 605.44 456.825 605.413 456.623C605.386 456.422 605.432 456.218 605.544 456.048C605.656 455.878 605.826 455.755 606.023 455.699C608.251 454.671 610.69 454.172 613.146 454.241C615.602 454.31 618.008 454.945 620.175 456.097C621.828 456.463 623.357 457.253 624.61 458.388C625.03 458.925 625.014 460.019 624.142 460.151H624.134Z" fill="#191919"/>
<path d="M522.335 595.211C519.859 591.149 516.063 588.059 511.58 586.459C509.371 585.988 509.611 586.499 509.715 585.852C511.341 575.986 507.541 563.265 499.235 559.799C498.332 559.4 498.436 559.799 498.54 559.348C498.963 557.286 498.828 555.148 498.15 553.155C497.472 551.162 496.274 549.385 494.681 548.008C494.281 548.336 475.028 563.736 473.011 565.094C480.526 566.739 489.307 568.627 495.384 563.896C497.517 562.235 496.391 562.215 497.493 562.858C502.851 565.988 507.649 575.926 505.204 586.587C496.059 588.388 498.412 590.979 463.35 590.875C417.622 590.747 417.661 582.402 398.397 581.181C382.24 580.159 363.85 586.076 349.827 576.789C350.508 569.238 352.559 561.875 355.88 555.06C362.072 539.3 359.875 536.437 361.961 528.068C362.295 525.594 363.357 523.275 365.012 521.404C366.667 519.534 368.841 518.197 371.257 517.563C381.485 516.693 387.134 530.58 400.35 528.651C409.196 527.362 412.819 518.17 419.367 519.32C420.782 519.568 419.971 519.096 416.806 522.183C410.626 528.212 412.867 536.425 418.181 542.047C418.872 541.4 441.417 520.797 441.828 520.43C442.519 521.481 443.35 522.433 444.297 523.261C443.598 523.876 420.83 543.928 420.486 544.223C424.702 547.521 429.335 550.249 434.265 552.337C437.557 549.49 423.686 561.52 463.646 526.383C461.209 525.016 458.718 523.747 456.179 522.578C460.478 518.51 465.368 512.88 465.32 506.958C465.268 502.071 461.692 498.837 457.941 500.003C456.456 500.677 455.128 501.654 454.042 502.87C452.956 504.086 452.135 505.515 451.633 507.066C451.425 505.187 451.111 503.32 450.694 501.476C448.352 491.37 438.82 492.293 436.798 499.576C436.035 505.482 437.059 511.481 439.739 516.801C437.729 516.337 435.668 516.132 433.606 516.19C430.499 515.482 427.246 515.807 424.341 517.116C415.991 511.969 410.842 518.006 405.3 521.991C395.133 529.302 387.917 519.512 380.454 515.547C378.633 514.342 376.558 513.573 374.391 513.301C372.224 513.029 370.024 513.26 367.961 513.976C365.898 514.693 364.028 515.876 362.498 517.433C360.967 518.99 359.817 520.879 359.136 522.954C357.294 528.565 356.182 534.391 355.828 540.286C354.002 551.438 347.118 561.592 345.672 573.195C344.134 572.995 331.17 580.873 329.016 595.954C328.457 599.883 328.872 602.45 332.472 604.415C338.361 607.629 348.289 608.288 354.921 608.695C376.283 610.005 389.236 612.229 397.058 604.822C401.956 610.963 410.718 611.909 418.113 612.273C440.929 613.39 463.794 612.978 486.554 611.039C502.795 609.693 531.161 607.988 522.335 595.211ZM451.848 518.51C452.563 514.772 455.796 504.371 459.247 503.62L459.695 503.596C460.271 503.86 460.753 504.293 461.074 504.839C461.396 505.384 461.542 506.016 461.493 506.647C461.589 511.929 456.299 517.376 452.364 520.909C451.397 520.518 451.645 521.085 451.848 518.51ZM443.119 497.835C443.736 497.782 444.35 497.975 444.825 498.374C448.5 500.821 448.348 515.723 447.697 520.222L446.726 521.105C441.78 515.862 436.734 499.799 443.119 497.835ZM505.659 584.187C505.659 584.028 505.659 584.099 505.659 584.187V584.187ZM233 732.037C237.262 733.842 241.574 735.496 245.936 737C251.785 730.871 266.488 718.921 273.104 713.642C269.561 711.157 265.936 708.789 262.237 706.543C256.06 711.989 238.785 727.146 233 732.037Z" fill="#EF233C"/>
<path d="M316.337 773.308C313.861 769.244 310.069 766.152 305.593 764.547C303.386 764.076 303.625 764.591 303.729 763.944C305.346 754.111 301.582 741.341 293.261 737.86C292.359 737.48 292.462 737.86 292.562 737.412C292.987 735.348 292.854 733.208 292.177 731.213C291.5 729.217 290.303 727.439 288.711 726.061C288.312 726.385 269.079 741.801 267.063 743.164C274.554 744.803 283.335 746.705 289.413 741.965C291.544 740.298 290.419 740.278 291.52 740.926C296.936 744.095 301.65 754.075 299.223 764.675C290.088 766.478 292.438 769.072 257.409 768.968C211.731 768.84 211.77 760.486 192.525 759.267C176.385 758.24 158.014 764.164 144.006 754.871C144.684 747.312 146.732 739.94 150.048 733.116C156.238 717.34 154.039 714.478 156.123 706.101C156.456 703.623 157.517 701.301 159.171 699.428C160.824 697.555 162.996 696.216 165.41 695.581C175.627 694.709 181.271 708.611 194.477 706.68C203.309 705.389 206.933 696.192 213.471 697.339C214.888 697.587 214.077 697.12 210.916 700.205C204.742 706.241 206.989 714.47 212.285 720.094C212.98 719.446 235.502 698.818 235.913 698.451C236.603 699.503 237.431 700.457 238.375 701.288C237.681 701.904 214.935 721.972 214.592 722.268C218.804 725.571 223.432 728.303 228.357 730.394C231.658 727.524 217.765 739.619 257.704 704.414C255.221 703.023 252.795 701.776 250.245 700.605C254.543 696.532 259.444 690.9 259.38 684.973C259.3 677.611 251.031 673.298 245.703 685.081C245.498 683.199 245.184 681.331 244.765 679.485C242.43 669.365 232.907 670.292 230.888 677.583C230.123 683.494 231.146 689.499 233.825 694.821C231.817 694.36 229.759 694.154 227.699 694.21C224.595 693.503 221.346 693.829 218.444 695.137C204.698 686.652 201.877 706.864 187.361 701.696C183.685 700.385 178.896 695.857 174.589 693.566C172.77 692.36 170.697 691.591 168.533 691.318C166.368 691.045 164.17 691.277 162.109 691.994C160.048 692.712 158.18 693.896 156.651 695.455C155.122 697.013 153.973 698.904 153.293 700.981C151.45 706.599 150.34 712.432 149.988 718.335C148.164 729.494 141.288 739.659 139.843 751.274C138.306 751.078 125.355 758.964 123.204 774.056C122.645 777.985 123.06 780.559 126.656 782.525C132.535 785.723 142.457 786.402 149.078 786.806C170.423 788.121 183.362 790.347 191.172 782.933C196.066 789.076 204.822 790.023 212.209 790.387C235.002 791.505 257.844 791.093 280.581 789.152C296.817 787.789 325.153 786.099 316.337 773.308ZM245.926 696.532C246.665 692.671 249.845 681.955 253.761 681.6C254.081 681.696 254.373 681.867 254.615 682.098C254.856 682.33 255.039 682.615 255.15 682.931C257.341 688.163 250.648 695.141 246.437 698.918C245.487 698.547 245.707 699.09 245.926 696.532ZM237.202 675.832C237.819 675.781 238.432 675.977 238.906 676.376C242.586 678.83 242.41 693.842 241.772 698.243L240.806 699.126C235.865 693.894 230.84 677.803 237.202 675.832ZM299.678 762.273C299.678 762.189 299.698 762.117 299.678 762.273V762.273Z" fill="#EF233C"/>
</svg>
